The Way Back (2010) PPVRIP IFLIX 
http://www.imdb.com/title/tt1023114/

[IMG]http://img130.imageshack.us/img130/6562/wayback.jpg[/IMG]
[IMG]http://img703.imageshack.us/img703/6337/17990591.png[/IMG]
[IMG]http://img847.imageshack.us/img847/7888/97299670.png[/IMG]
[IMG]http://img35.imageshack.us/img35/1259/44553345.png[/IMG]
Trailer

Language: English
Subtitles: English
Format                           : AVI
Format/Info                      : Audio Video Interleave
Format profile                   : OpenDML
File size                        : 1.56 GiB
Duration                         : 2h 11mn
Overall bit rate                 : 1 694 Kbps

Video
ID                               : 0
Format                           : MPEG-4 Visual
Format profile                   : Simple@L3
Format settings, BVOP            : No
Format settings, QPel            : No
Format settings, GMC             : No warppoints
Format settings, Matrix          : Default (H.263)
Codec ID                         : XVID
Codec ID/Hint                    : XviD
Duration                         : 2h 11mn
Bit rate                         : 1 549 Kbps
Width                            : 720 pixels
Height                           : 480 pixels
Display aspect ratio             : 1.500
Frame rate                       : 29.970 fps
Original frame rate              : 29.000 fps
Standard                         : NTSC
Resolution                       : 24 bits
Colorimetry                      : 4:2:0
Scan type                        : Progressive
Bits/(Pixel*Frame)               : 0.150
Stream size                      : 1.43 GiB (91%)
Writing library                  : XviD 1.2.1 (UTC 2008-12-04)

Audio
ID                               : 1
Format                           : MPEG Audio
Format version                   : Version 1
Format profile                   : Layer 3
Format_Settings_Mode             : Joint stereo / MS Stereo
Codec ID                         : 55
Codec ID/Hint                    : MP3
Duration                         : 2h 11mn
Bit rate mode                    : Constant
Bit rate                         : 128 Kbps
Channel(s)                       : 2 channels
Sampling rate                    : 44.1 KHz
Resolution                       : 16 bits
Stream size                      : 121 MiB (8%)
Alignment                        : Aligned on interleaves
Interleave, duration             : 26 ms (0.78 video frame)
Writing library                  : LAME3.98.2


Release notes...

Another quality release from IFLIX
More to come very soon!

Video source: Ours
Audio source: Ours

Greetings to all other groups out there. You all do awesome work and we greatly appreciate it.
IFLIX :-)

